<?xml version="1.0" encoding="UTF-8" standalone="no"?>
<svg width="220px" height="37px" viewBox="0 0 220 37" version="1.1" xmlns="http://www.w3.org/2000/svg" xmlns:xlink="http://www.w3.org/1999/xlink">
    <!-- Generator: Sketch 46.2 (44496) - http://www.bohemiancoding.com/sketch -->
    <title>Group 108</title>
    <desc>Created with Sketch.</desc>
    <defs></defs>
    <g id="Symbols" stroke="none" stroke-width="1" fill="none" fill-rule="evenodd">
        <g id="Header" transform="translate(-140.000000, -13.000000)">
            <g id="Group-108" transform="translate(140.000000, 13.000000)">
                <path d="M194.266978,21.6350402 L186.710103,21.6350402 C186.723018,21.9684387 186.764185,22.2854336 186.833539,22.58607 C186.918571,22.9543378 187.046062,23.300311 187.215808,23.6234459 C187.385736,23.9467394 187.582717,24.2322183 187.806478,24.4801318 C188.028766,24.7265046 188.277631,24.9356746 188.552507,25.1080494 L188.552461,25.1081854 C188.826816,25.2777281 189.11712,25.4056725 189.423149,25.4912935 C189.726935,25.5762575 190.0476,25.6191473 190.384851,25.6191473 C190.619646,25.6191473 190.828385,25.6097899 191.010661,25.5910978 C191.191374,25.572587 191.35054,25.545036 191.488091,25.5084902 L192.115125,25.3137755 L192.6216,25.0323296 L193.20289,24.6593265 L193.696202,24.2289557 L193.696338,24.229069 L194.918731,23.1358435 L194.928746,23.1267127 C195.060927,23.0215839 195.214225,22.9421483 195.388457,22.8890855 C195.556029,22.8380391 195.739778,22.8120968 195.93925,22.8120968 C196.331285,22.8120968 196.693073,22.943553 197.024387,23.2064202 L197.024274,23.2065561 C197.197419,23.3415469 197.327788,23.5039753 197.415335,23.6930031 C197.502157,23.8806035 197.545635,24.0913141 197.545635,24.3238661 C197.545635,24.7385808 197.395351,25.2063811 197.094851,25.7161421 L197.088439,25.7261565 C197.068274,25.7564717 197.037959,25.7998146 196.997992,25.8558229 C196.955804,25.9149804 196.909244,25.9791452 196.85813,26.0487477 C196.80006,26.1280021 196.745909,26.1980803 196.696019,26.2578043 C196.649526,26.3134274 196.603464,26.3635221 196.557539,26.4075221 C196.48311,26.4924861 196.420871,26.5623605 196.371434,26.6163069 L196.37098,26.6159217 C196.310486,26.6819444 196.260958,26.7342142 196.222735,26.7723687 L196.223188,26.7728218 C196.182021,26.8139897 196.11806,26.8692956 196.031487,26.9385808 C195.945028,27.0077528 195.850231,27.0798249 195.747096,27.1548424 L195.746711,27.1542533 C195.473625,27.3613162 195.152575,27.5595201 194.783605,27.7473018 C194.420978,27.9320247 194.006286,28.1099732 193.539687,28.2797878 L193.52974,28.2833903 C192.610544,28.5693903 191.601897,28.7124016 190.504299,28.7124016 C189.213572,28.7124016 188.059965,28.5247559 187.043683,28.1503254 C186.020445,27.7732441 185.137885,27.2069763 184.396274,26.4525417 C183.655955,25.696793 183.100789,24.8103131 182.730935,23.7926035 C182.362985,22.7799691 182.178919,21.6399114 182.178919,20.372068 C182.178919,19.7766859 182.222465,19.2024655 182.309423,18.648206 C182.396698,18.092655 182.52675,17.5640886 182.699329,17.0615324 L182.700235,17.0615324 C182.874853,16.5556457 183.090593,16.0844923 183.347094,15.6490917 C183.604954,15.2116066 183.903483,14.8100103 184.242387,14.4454583 C184.583489,14.0786179 184.972624,13.7485726 185.409747,13.4541668 C185.843335,13.1621401 186.327131,12.903759 186.860704,12.6780041 L186.869767,12.6743337 C187.116004,12.5819835 187.353881,12.5017096 187.583102,12.4337611 C187.814952,12.3649063 188.041545,12.3073574 188.262157,12.2611823 C188.48295,12.2149392 188.672363,12.1782122 188.830033,12.1511596 C188.991238,12.1234954 189.129061,12.1041462 189.243116,12.0932935 C189.351916,12.0828939 189.487631,12.0751226 189.649856,12.0699794 C189.825969,12.0644058 190.011258,12.0615736 190.205724,12.0615736 C190.979689,12.0615736 191.707479,12.1462204 192.388844,12.3152647 C193.072272,12.4847394 193.707326,12.7394727 194.293759,13.078966 C194.878515,13.4174851 195.389953,13.8070051 195.827574,14.247277 C196.266214,14.6885005 196.630562,15.1807703 196.920165,15.7238599 C197.207819,16.2632791 197.423627,16.8063687 197.567296,17.3529248 C197.712051,17.9036498 197.784509,18.457275 197.784509,19.0133244 C197.784509,19.5330319 197.705368,19.9689763 197.547131,20.320999 C197.3811,20.6903543 197.130241,20.9648445 196.794917,21.1439712 C196.484651,21.3097302 196.116768,21.4335057 195.691677,21.5147539 C195.272861,21.5948239 194.797856,21.6350402 194.266978,21.6350402 Z M186.740486,18.9000844 C186.827897,18.3410896 186.953893,17.8478908 187.118496,17.4209413 C187.304375,16.938482 187.539759,16.5407374 187.824264,16.2282739 C188.104803,15.920206 188.431654,15.6893759 188.804476,15.5361236 C189.180515,15.3815345 189.60785,15.3041607 190.086208,15.3041607 C190.574128,15.3041607 191.012972,15.3830752 191.402492,15.5407456 C191.789565,15.6973965 192.130735,15.9324634 192.425594,16.2458105 L192.426478,16.2467848 C192.604313,16.433932 192.756161,16.6300742 192.881839,16.834758 C193.007722,17.0399629 193.107458,17.2529166 193.181003,17.4734604 L193.186463,17.4898414 C193.350546,17.8836663 193.442647,18.3538002 193.462698,18.9000844 L186.740486,18.9000844 Z M134.840674,21.6350402 L127.283798,21.6350402 C127.296781,21.9684387 127.337881,22.2854336 127.407234,22.58607 C127.492266,22.9543378 127.619689,23.3002657 127.789572,23.6234459 C127.959454,23.9467394 128.156412,24.2322183 128.380173,24.4801318 C128.602529,24.7265046 128.851258,24.9356066 129.126225,25.1080494 L129.126157,25.1081854 C129.400511,25.2777281 129.690884,25.4056725 129.996844,25.4912935 C130.300698,25.5762575 130.621296,25.6191473 130.958546,25.6191473 C131.193341,25.6191473 131.40208,25.6097899 131.584424,25.5910978 C131.765069,25.572587 131.924235,25.545036 132.061808,25.5084902 L132.68882,25.3137755 L133.195296,25.0323296 L133.776653,24.6593265 L134.26992,24.2289557 L134.270033,24.229069 L135.492494,23.1358435 L135.502441,23.1267127 C135.634554,23.0216519 135.78792,22.9421483 135.962175,22.8890855 C136.129792,22.8380391 136.313473,22.8120968 136.512968,22.8120968 C136.905048,22.8120968 137.266836,22.943553 137.598173,23.2064202 L137.597969,23.2065561 C137.771114,23.3415469 137.901506,23.5039753 137.98903,23.6930031 C138.075874,23.8806035 138.119353,24.0913141 138.119353,24.3238661 C138.119353,24.7385808 137.969069,25.2063811 137.668546,25.7161421 L137.662202,25.7261565 C137.642037,25.7564717 137.611654,25.7998146 137.57171,25.8558229 C137.529499,25.9149804 137.483007,25.9791452 137.431893,26.0487477 C137.373755,26.1280021 137.319627,26.1980803 137.269714,26.2578043 C137.223153,26.3136766 137.176978,26.3637714 137.130917,26.4078393 C137.056488,26.4929392 136.994521,26.5624284 136.945129,26.6163069 L136.944744,26.6159217 C136.884249,26.6819444 136.834721,26.7342142 136.796498,26.7723687 L136.796884,26.7728218 C136.755784,26.8139897 136.691823,26.8692956 136.605182,26.9385808 C136.518746,27.0077528 136.423949,27.0798249 136.320791,27.1548424 L136.320406,27.1542533 C136.047388,27.3613162 135.72627,27.5595201 135.3573,27.7473018 C134.994674,27.9320247 134.579981,28.1099732 134.11345,28.2797878 L134.103436,28.2833903 C133.184262,28.5693903 132.175728,28.7124016 131.077994,28.7124016 C129.787335,28.7124016 128.633751,28.5247559 127.617446,28.1503254 C126.594163,27.7732441 125.71158,27.2069763 124.969969,26.4525417 C124.22965,25.696793 123.674439,24.8102451 123.304698,23.7926035 C122.936748,22.7799691 122.752614,21.6399114 122.752614,20.372068 C122.752614,19.7766859 122.796161,19.2024655 122.883186,18.648206 C122.970393,18.092655 123.1004,17.5640886 123.273024,17.0615324 L123.27393,17.0615324 C123.448548,16.5556457 123.664288,16.0844923 123.920812,15.6490917 C124.178671,15.2116066 124.477178,14.8100103 124.816105,14.4454583 C125.157116,14.0786859 125.546387,13.7485726 125.983374,13.4541668 L125.98428,13.4541668 C126.419069,13.161415 126.902503,12.9030566 127.434468,12.6780041 L127.44353,12.6743337 C127.689699,12.5819835 127.927598,12.5017096 128.156797,12.4337611 C128.388715,12.3649063 128.615308,12.3073574 128.835852,12.2611823 C129.056713,12.2149392 129.246058,12.1782122 129.403728,12.1511596 C129.564933,12.1234954 129.702756,12.1041462 129.81688,12.0932935 C129.925611,12.0828939 130.061326,12.0751226 130.223619,12.0699794 C130.399664,12.0644058 130.584954,12.0615736 130.779419,12.0615736 C131.553407,12.0615736 132.281197,12.1462204 132.96254,12.3152647 C133.645967,12.4847394 134.281022,12.7394727 134.867454,13.078966 C135.452278,13.4174851 135.963648,13.8070051 136.401269,14.247277 C136.84,14.6885005 137.204325,15.1807703 137.493928,15.7238599 C137.781582,16.2632791 137.99739,16.8063687 138.140991,17.3529248 C138.285747,17.9036498 138.358272,18.457275 138.358272,19.0133244 C138.358272,19.5330319 138.279063,19.9689763 138.120826,20.320999 C137.954795,20.6903543 137.703868,20.9648445 137.368612,21.1439712 C137.058414,21.3097302 136.690463,21.4335057 136.26544,21.5147539 C135.846556,21.5948239 135.371619,21.6350402 134.840674,21.6350402 Z M127.314181,18.9000844 L134.036461,18.9000844 C134.01641,18.3538002 133.924241,17.8836663 133.760159,17.4898414 L133.754698,17.4734604 C133.681221,17.2529166 133.581417,17.0399629 133.455535,16.834758 C133.329856,16.6300742 133.178031,16.433932 133.000196,16.2467848 L132.999289,16.2458105 C132.704363,15.9325314 132.363261,15.6973965 131.976255,15.5407456 C131.586599,15.3830752 131.147755,15.3041607 130.659903,15.3041607 C130.181613,15.3041607 129.75421,15.3815345 129.378171,15.5361236 C129.005349,15.6893759 128.678498,15.920206 128.397981,16.2282739 C128.113522,16.5407374 127.87807,16.938414 127.692214,17.4209413 C127.527656,17.8478908 127.40166,18.3410896 127.314181,18.9000844 Z M91.0623502,21.6350402 L83.5054748,21.6350402 C83.5184346,21.9684387 83.5595345,22.2854336 83.6289104,22.58607 C83.7139423,22.9543378 83.8413656,23.3002657 84.0112482,23.6234459 C84.1811081,23.9467394 84.3780886,24.2322183 84.6018496,24.4801318 C84.8241833,24.7265046 85.0729351,24.9356066 85.3478785,25.1080494 L85.3478105,25.1081854 C85.6221874,25.2777281 85.9124923,25.4056725 86.2185211,25.4912935 C86.5223069,25.5762575 86.8429722,25.6191473 87.1802225,25.6191473 C87.4150175,25.6191473 87.623757,25.6097899 87.8060103,25.5910978 C87.9867456,25.572587 88.1458888,25.545036 88.2834624,25.5084902 L88.9104964,25.3137755 L89.4169722,25.0323296 L89.9982616,24.6593265 L90.4915736,24.2289557 L90.4917096,24.229069 L91.714103,23.1358435 L91.7241174,23.1267127 C91.8562307,23.0216519 92.0095963,22.9421483 92.183829,22.8890855 C92.3514006,22.8380391 92.5351493,22.8120968 92.734622,22.8120968 C93.126725,22.8120968 93.4884902,22.943553 93.819827,23.2064202 L93.8196457,23.2065561 C93.9927909,23.3415469 94.1231596,23.5039753 94.2107065,23.6930031 C94.2975283,23.8806035 94.3410072,24.0913141 94.3410072,24.3238661 C94.3410072,24.7385808 94.190723,25.2063811 93.8902225,25.7161421 L93.8838558,25.7261565 C93.863691,25.7564717 93.8333079,25.7998146 93.7933635,25.8558229 C93.7511761,25.9149804 93.7046838,25.9791452 93.6534789,26.0487477 C93.5954315,26.1280021 93.5412812,26.1980803 93.4913903,26.2578043 C93.4447621,26.3136766 93.398655,26.3637714 93.3525932,26.4078393 C93.2780968,26.4929392 93.2161751,26.5624284 93.1667827,26.6163069 L93.1663522,26.6159217 C93.1059032,26.6819444 93.0563975,26.7342142 93.0181071,26.7723687 L93.0185602,26.7728218 C92.9774604,26.8139897 92.9134995,26.8692956 92.8268589,26.9385808 C92.7403996,27.0077528 92.6456025,27.0798249 92.5424676,27.1548424 L92.5420824,27.1542533 C92.2689969,27.3613162 91.9479464,27.5595201 91.5789763,27.7473018 C91.2163502,27.9320247 90.8016581,28.1099732 90.3350587,28.2797878 L90.3251123,28.2833903 C89.4059156,28.5693903 88.3974047,28.7124016 87.2996704,28.7124016 C86.0090113,28.7124016 84.8554047,28.5247559 83.8391226,28.1503254 C82.8158167,27.7732441 81.9332564,27.2069763 81.1916457,26.4525417 C80.4512585,25.696793 79.8960927,24.8102451 79.5263522,23.7926035 C79.1583563,22.7799691 78.9742904,21.6399114 78.9742904,20.372068 C78.9742904,19.7766859 79.0178373,19.2024655 79.104863,18.648206 C79.19207,18.092655 79.3220536,17.5640886 79.4947003,17.0615324 L79.4956066,17.0615324 C79.6702245,16.5556457 79.885965,16.0844923 80.1424655,15.6490917 C80.4003254,15.2116066 80.6988548,14.8100103 81.037759,14.4454583 C81.378793,14.0786859 81.7679959,13.7485726 82.2050505,13.4541668 L82.2059341,13.4541668 C82.6407456,13.161415 83.1241565,12.9030566 83.6561442,12.6780041 L83.6651843,12.6743337 C83.9113759,12.5819835 84.1492523,12.5017096 84.3784737,12.4337611 C84.6103234,12.3649063 84.8369846,12.3073574 85.0575283,12.2611823 C85.2783893,12.2149392 85.4677343,12.1782122 85.6254047,12.1511596 C85.7866097,12.1234954 85.9244325,12.1041462 86.0385561,12.0932935 C86.1472873,12.0828939 86.2830031,12.0751226 86.4452956,12.0699794 C86.6213409,12.0644058 86.8066303,12.0615736 87.0010958,12.0615736 C87.7750608,12.0615736 88.5028507,12.1462204 89.1842163,12.3152647 C89.8676437,12.4847394 90.5026982,12.7394727 91.0891308,13.078966 C91.6738867,13.4174851 92.1853018,13.8070051 92.6229454,14.247277 C93.061654,14.6885005 93.4260021,15.1807703 93.7156045,15.7238599 C94.0032585,16.2632791 94.2190443,16.8063687 94.3626674,17.3529248 C94.5074233,17.9036498 94.5799258,18.457275 94.5799258,19.0133244 C94.5799258,19.5330319 94.5007394,19.9689763 94.3424799,20.320999 C94.1764717,20.6903543 93.9255448,20.9648445 93.5902884,21.1439712 C93.2800227,21.3097302 92.9121401,21.4335057 92.4870484,21.5147539 C92.0682327,21.5948239 91.5932276,21.6350402 91.0623502,21.6350402 Z M83.5358579,18.9000844 L90.2581153,18.9000844 C90.2380185,18.3538002 90.1459176,17.8836663 89.9818352,17.4898414 L89.9763749,17.4734604 C89.902898,17.2529166 89.8030937,17.0399629 89.6772111,16.834758 C89.5515098,16.6300742 89.3996849,16.433932 89.2218496,16.2467848 L89.220966,16.2458105 C88.9260391,15.9325314 88.5849372,15.6973965 88.1979094,15.5407456 C87.808276,15.3830752 87.3694315,15.3041607 86.8815798,15.3041607 C86.4032214,15.3041607 85.9758641,15.3815345 85.5998476,15.5361236 C85.2270031,15.6893759 84.9001751,15.920206 84.6196354,16.2282739 C84.3351988,16.5407374 84.0997467,16.938414 83.9138682,17.4209413 C83.7493326,17.8478908 83.6232461,18.3410896 83.5358579,18.9000844 Z M49.0099279,8.68091452 L49.0099279,14.2096437 C49.2642533,13.9654459 49.5195984,13.7426591 49.7758043,13.5413738 C50.1696292,13.2318785 50.5672379,12.9715716 50.968449,12.760725 C51.3758229,12.5465932 51.8289413,12.3862945 52.3275098,12.2798744 C52.8222945,12.1742245 53.3610113,12.1212976 53.9434109,12.1212976 C54.6395489,12.1212976 55.2873821,12.2040185 55.8865252,12.3692791 C56.4854871,12.534517 57.0330628,12.7821813 57.529207,13.1118414 C58.0463316,13.419932 58.5069042,13.8070731 58.9108568,14.2723131 C59.3131782,14.7356952 59.658517,15.2766097 59.9466921,15.8940597 L59.9475304,15.8958496 C60.0908136,16.2106921 60.2160391,16.5334192 60.3228445,16.8634645 C60.4299217,17.1939629 60.5193718,17.5337734 60.5910587,17.8820124 C60.6622019,18.2278496 60.7157858,18.5987456 60.7514933,18.9959238 C60.787518,19.3960474 60.805553,19.8147271 60.805553,20.2525973 C60.805553,21.5236807 60.6435778,22.6430525 60.3197631,23.6206138 C60.1960103,24.1227848 60.0234315,24.5963852 59.8025026,25.0401009 C59.5807353,25.48538 59.3098249,25.901862 58.9900659,26.2886406 C58.6710546,26.6744902 58.322,27.0157961 57.9429475,27.3136004 C57.5644614,27.6110196 57.1556601,27.8650278 56.7169516,28.0765767 C56.2785602,28.2880803 55.8249887,28.4469063 55.3567353,28.5529413 C54.8875757,28.6592255 54.4064078,28.7124016 53.9135489,28.7124016 C53.8240762,28.7124016 53.6983975,28.710861 53.5366035,28.7077796 C53.4009104,28.7052194 53.2648095,28.7013677 53.1289804,28.6965417 C52.973621,28.6910134 52.8055283,28.6682884 52.6252008,28.6291823 C52.4535283,28.5919794 52.2651576,28.538622 52.0603378,28.4698352 C51.7947065,28.4080494 51.5428054,28.3280927 51.3051102,28.2307806 C51.0631102,28.1317013 50.8358373,28.0140886 50.6236313,27.8787806 L50.606344,27.8670216 L49.680622,27.1552729 L49.652414,27.1298517 L49.005102,26.4362966 C48.9907147,26.7355057 48.9435654,27.0095654 48.8637446,27.2591329 C48.7645294,27.5690814 48.6149475,27.8387003 48.4151349,28.0690772 L48.4024243,28.0827621 C48.1919629,28.2903913 47.9572812,28.4476766 47.6985149,28.5535757 C47.4404511,28.6591576 47.1627436,28.7124016 46.8660268,28.7124016 C46.242414,28.7124016 45.728484,28.4990628 45.3241236,28.0723399 L45.3077425,28.0532626 C45.1305644,27.8206426 44.9980659,27.5482822 44.9104511,27.2371102 C44.8247168,26.9324861 44.7818723,26.5915201 44.7818723,26.2151637 L44.7818723,8.85514727 C44.7818723,7.98998764 44.963378,7.32910402 45.3263666,6.87811535 C45.513967,6.64506488 45.737932,6.46978991 45.9978991,6.35263028 C46.2551926,6.23678476 46.5446591,6.17871473 46.8660268,6.17871473 C47.1953244,6.17871473 47.4919732,6.23497219 47.7557467,6.34712461 C48.0232358,6.460931 48.253794,6.63162925 48.4467415,6.85867559 C48.6360639,7.08139444 48.7780103,7.34806797 48.8720371,7.65812976 C48.9638661,7.96069207 49.0099279,8.30172606 49.0099279,8.68091452 Z M49.2189619,20.491516 C49.2189619,21.9792915 49.5569825,23.1467642 50.2328877,23.9983749 L50.2330917,23.9982616 C50.5896457,24.3900247 50.9918311,24.6838414 51.4392173,24.8787827 C51.8861504,25.0734974 52.3824985,25.1712626 52.9280803,25.1712626 C53.3785479,25.1712626 53.8007621,25.0693965 54.1943378,24.8665026 C54.5946426,24.6602101 54.9694583,24.3480185 55.3180824,23.9309475 L55.3185129,23.9313326 C55.6656643,23.5136725 55.9269907,23.0109351 56.1021977,22.4228939 C56.2796478,21.8274665 56.3684634,21.1440391 56.3684634,20.372068 C56.3684634,19.8684016 56.330966,19.3982904 56.2561977,18.9629804 C56.1820185,18.5311823 56.0707951,18.131897 55.9228671,17.7667106 L55.9228671,17.765827 C55.7758002,17.4005726 55.5994377,17.0773244 55.3939835,16.7971926 C55.1921998,16.5219773 54.962276,16.2880659 54.7044161,16.0965005 C54.5742966,16.0036292 54.4418661,15.9221771 54.3073738,15.852688 C54.1719073,15.7826323 54.0361462,15.7248795 53.9004985,15.6796787 C53.627413,15.5885973 53.3032132,15.5430566 52.9280803,15.5430566 C52.2574995,15.5430566 51.622966,15.7394706 51.0247065,16.1320041 L51.0243893,16.131551 C50.9155901,16.2042575 50.8019197,16.2967436 50.6832873,16.4098476 C50.5665355,16.521275 50.4440515,16.654793 50.3159258,16.8113759 C50.1858744,16.9703378 50.0711164,17.1318599 49.9720144,17.2955572 C49.8711679,17.4619732 49.7828733,17.6350505 49.7074706,17.8142451 L49.7074706,17.8151514 C49.5449743,18.1952915 49.4228754,18.6079444 49.3415139,19.0515469 C49.2598126,19.4970072 49.2189619,19.9774727 49.2189619,20.491516 Z M174.252937,22.7709743 L174.252937,26.070793 C174.252937,26.5005747 174.199127,26.8794459 174.091687,27.2062739 C173.980373,27.5449969 173.812235,27.8271905 173.587522,28.0519938 L173.587454,28.0519258 C173.387642,28.2690031 173.156245,28.4334933 172.89331,28.5446488 C172.629333,28.6562122 172.337963,28.7124016 172.019473,28.7124016 C171.710476,28.7124016 171.421916,28.6565294 171.153973,28.5449207 C170.886099,28.4333574 170.641856,28.2672585 170.421629,28.0469866 L170.410709,28.0342533 C170.20974,27.8027209 170.059592,27.5190546 169.960558,27.1849537 C169.864084,26.8599835 169.815916,26.4879773 169.815916,26.070793 L169.815916,15.0316416 C169.815916,14.0884511 169.992527,13.3734851 170.345637,12.8865396 C170.715763,12.3762122 171.26386,12.1212976 171.989611,12.1212976 C172.319656,12.1212976 172.619137,12.1787106 172.887646,12.2941256 C173.158352,12.410447 173.395345,12.5853821 173.59842,12.8193615 L173.612105,12.8366488 C173.671127,12.9193697 173.73042,13.0314315 173.789623,13.1717693 C173.84545,13.3041318 173.901753,13.4620515 173.95835,13.6445767 C174.004208,13.7926859 174.040935,13.9412935 174.068554,14.090105 C174.174589,13.9350628 174.284408,13.7874748 174.397829,13.6475448 C174.650297,13.3360556 174.918692,13.064896 175.202834,12.8350855 C175.498192,12.5961895 175.827988,12.417312 176.191883,12.2979773 C176.551745,12.1800021 176.942873,12.1212976 177.364816,12.1212976 C177.781841,12.1212976 178.201042,12.1776231 178.622146,12.2894356 C179.038787,12.3999794 179.456877,12.5657384 179.87601,12.7856478 C180.311071,13.013895 180.639961,13.2802966 180.862385,13.5831761 C181.094665,13.8995592 181.210851,14.2520124 181.210851,14.6385191 C181.210851,15.1765335 181.022933,15.6250072 180.647211,15.9893553 L180.645421,15.9911679 C180.461673,16.1666241 180.265462,16.2999609 180.056995,16.3902492 C179.845242,16.4821009 179.62463,16.5285252 179.395477,16.5285252 L179.342686,16.5221133 L178.267699,16.2682863 L178.251386,16.2638002 C177.992484,16.1823028 177.745998,16.1211514 177.512404,16.0806179 C177.282684,16.0408774 177.064179,16.0208939 176.857184,16.0208939 C176.591621,16.0208939 176.352,16.0565335 176.138525,16.1276313 C175.92786,16.1978455 175.739172,16.3031102 175.572824,16.4432441 L175.552863,16.4586509 C175.419526,16.5481916 175.291718,16.6844737 175.169823,16.8659114 C175.040542,17.0583831 174.918828,17.3007683 174.805203,17.5914583 C174.719151,17.8610772 174.640101,18.1741071 174.568482,18.5306159 C174.495708,18.8930834 174.429753,19.3020659 174.371048,19.7579485 L174.252371,22.7709743 L174.252937,22.7709743 Z M159.741048,12.4498023 L159.961275,12.4498023 L159.961275,10.2935304 L159.961275,8.80036251 C159.961275,8.43821215 160.062756,8.09350772 160.265446,7.76686097 L160.267304,7.76507106 C160.36917,7.60547477 160.484313,7.46142122 160.613934,7.33315963 C160.744756,7.20374253 160.89035,7.08948301 161.051804,6.99076622 L161.051691,6.99058496 C161.214437,6.88955716 161.387967,6.81352008 161.572418,6.76265499 C161.75662,6.71178991 161.948956,6.68634604 162.149924,6.68634604 C162.733728,6.68634604 163.244305,6.89673944 163.692597,7.31736766 L163.716229,7.34369516 L164.019833,7.73192379 L164.057149,7.80193409 L164.266183,8.42908136 L164.271644,8.44546241 C164.292647,8.52965602 164.311339,8.62053347 164.327539,8.71770958 C164.342945,8.81033162 164.356041,8.91006797 164.366645,9.0166241 C164.376908,9.11969104 164.384748,9.2518723 164.389891,9.41276004 C164.395532,9.58615448 164.398365,9.77017508 164.398365,9.96502575 L164.398365,12.4498023 L165.613938,12.4498023 C166.24888,12.4498023 166.725743,12.6110072 167.049829,12.9333038 C167.218465,13.074276 167.346546,13.2439547 167.432915,13.4420227 C167.519827,13.6413821 167.563736,13.8661627 167.563736,14.1158661 C167.563736,14.4063522 167.49785,14.6611308 167.36696,14.8799526 C167.235753,15.0992729 167.042171,15.2765417 166.787211,15.4113512 C166.550536,15.5365088 166.272692,15.6299691 165.954791,15.691483 C165.643687,15.7517281 165.294179,15.7819753 164.907219,15.7819753 L164.398365,15.7819753 L164.398365,22.8456746 L164.398365,24.2743605 L164.499324,24.6487909 L164.704393,24.9563605 C164.777734,25.0221792 164.869586,25.0727951 164.980696,25.1083666 C165.111518,25.1502595 165.270933,25.1712626 165.459689,25.1712626 L165.912717,25.1712626 C166.022286,25.144482 166.107454,25.1239773 166.166227,25.1104284 C166.243668,25.0925067 166.304049,25.0794109 166.34771,25.0711864 L166.365835,25.0684902 L167.326426,24.9639959 L167.350964,24.962206 C167.535619,24.962206 167.714225,25.0015613 167.887506,25.0795469 C168.053469,25.1541792 168.212861,25.2643151 168.366045,25.4090031 C168.52648,25.5606468 168.646698,25.7298723 168.727312,25.9177446 C168.807903,26.1055263 168.847802,26.3087374 168.847802,26.5287147 C168.847802,26.8715386 168.745551,27.1859732 168.541955,27.4694809 C168.347489,27.7402327 168.061489,27.9783811 167.684884,28.1815922 L167.67036,28.1888424 C167.283401,28.3639815 166.828877,28.4956416 166.306292,28.5830525 C165.791909,28.6690587 165.212795,28.7124016 164.568814,28.7124016 C163.937815,28.7124016 163.377324,28.6594974 162.88877,28.5537116 C162.391471,28.446 161.967648,28.2829372 161.619046,28.0648404 C161.265347,27.8451123 160.975065,27.5799341 160.746999,27.2681957 C160.518752,26.9561174 160.354148,26.5994274 160.252214,26.1968568 C160.155355,25.8144737 160.082536,25.369897 160.033981,24.8620844 C159.985495,24.355654 159.961275,23.7933059 159.961275,23.1741792 L159.961275,15.7819753 L159.651462,15.7819753 C159.346702,15.7819753 159.072915,15.7447271 158.829578,15.6702987 C158.578198,15.5934233 158.362389,15.4774192 158.181609,15.3224449 C157.998381,15.1654995 157.861057,14.9853986 157.769228,14.7824593 C157.67758,14.5798826 157.631971,14.3576169 157.631971,14.1158661 C157.631971,13.8723934 157.680978,13.6483831 157.779423,13.4438805 C157.877256,13.2410546 158.022919,13.0611576 158.216931,12.9047786 C158.40716,12.7514809 158.632076,12.6366323 158.89193,12.5605953 C159.144216,12.4868692 159.427248,12.4498023 159.741048,12.4498023 Z M145.312379,14.3764902 C145.529411,14.1364161 145.756435,13.9135613 145.993609,13.7081751 C146.384556,13.3695201 146.801242,13.0802348 147.2431,12.8413162 C147.689467,12.5999732 148.163769,12.419759 148.665623,12.3001071 C149.166253,12.1807724 149.694367,12.1212976 150.249736,12.1212976 C150.794616,12.1212976 151.308478,12.1810216 151.790801,12.3002884 C152.27095,12.4190566 152.719106,12.5975263 153.134886,12.8356746 L153.13509,12.8354253 C153.583813,13.0728033 153.973469,13.361862 154.303854,13.7009701 C154.635372,14.0411658 154.906599,14.4321813 155.11731,14.8719773 L155.12277,14.882898 L155.421413,15.599518 L155.434146,15.6395304 L155.643135,16.5901977 L155.647689,16.6265396 L155.767137,18.6771164 L155.768043,18.689827 L155.768043,26.070793 C155.768043,26.9389207 155.559258,27.5977199 155.142051,28.0361792 C154.949693,28.2614356 154.720154,28.4308424 154.454206,28.5440144 C154.190365,28.6562801 153.893761,28.7124016 153.564418,28.7124016 C153.245044,28.7124016 152.948395,28.6537199 152.674653,28.5371493 C152.401953,28.420964 152.154877,28.2477508 151.933949,28.0184614 L151.92484,28.008447 C151.724325,27.7745355 151.574426,27.4925232 151.475528,27.1635654 C151.379304,26.8434665 151.331022,26.4788012 151.331022,26.070793 L151.331022,19.4712461 C151.331022,18.8472935 151.287724,18.2959341 151.201151,17.8174624 C151.115802,17.3452667 150.988311,16.940861 150.81895,16.604449 C150.662888,16.2945005 150.426597,16.0614274 150.110554,15.9061359 C149.780622,15.7439567 149.359065,15.6625273 148.846222,15.6625273 C148.512439,15.6625273 148.196531,15.7128033 147.898704,15.8128795 C147.598023,15.9139073 147.313042,16.0655963 147.044216,16.2672667 L147.024233,16.2808836 C146.75185,16.4442636 146.521223,16.6499217 146.332536,16.8969289 C146.142556,17.1457261 145.99413,17.4384779 145.887574,17.7743687 C145.777438,18.1217013 145.694513,18.5701751 145.639162,19.1194274 C145.583153,19.6748424 145.555081,20.3380144 145.555081,21.1087168 L145.555081,26.070793 C145.555081,26.4974253 145.505326,26.8747559 145.405907,27.2017878 C145.303656,27.5381318 145.148229,27.8194871 144.939942,28.0447209 L144.939059,28.0465335 C144.732381,28.2671452 144.491786,28.4339918 144.217681,28.5460762 C143.947042,28.6566653 143.648264,28.7124016 143.321685,28.7124016 C143.022204,28.7124016 142.740577,28.6562801 142.476735,28.5440144 C142.215477,28.4329042 141.974247,28.266828 141.753635,28.0461483 L141.743553,28.0352276 C141.532752,27.79393 141.375217,27.5061401 141.271108,27.1735798 C141.169174,26.8478393 141.11806,26.4796395 141.11806,26.070793 L141.11806,14.6135963 C141.11806,13.7628239 141.302964,13.1327085 141.672636,12.7343975 L141.672568,12.7343296 C141.861007,12.5288074 142.084904,12.3746035 142.344056,12.272103 C142.598064,12.1716643 142.884109,12.1212976 143.202214,12.1212976 C143.397654,12.1212976 143.581539,12.1425046 143.753211,12.1839217 C143.927263,12.2259959 144.086089,12.2890505 144.229372,12.3721565 L144.232068,12.3739691 C144.375419,12.4600206 144.510931,12.573759 144.638422,12.714414 C144.76256,12.8514665 144.87836,13.0131246 144.985732,13.1982327 C145.096208,13.3888465 145.17911,13.5973821 145.23428,13.8237034 C145.276989,13.9990463 145.303067,14.1833615 145.312379,14.3764902 Z M120.500503,23.5623625 C120.500503,23.8114315 120.459788,24.0757034 120.378494,24.3554727 C120.299693,24.6270175 120.181831,24.9125644 120.025316,25.2125438 L120.025316,25.2134501 C119.868733,25.5109372 119.670031,25.8086735 119.429572,26.1049598 C119.194505,26.3946076 118.918474,26.6831679 118.601637,26.9692812 L118.575242,26.990103 L117.589796,27.6520515 L117.555221,27.6711967 L116.271133,28.2435819 L116.246663,28.25269 C115.76477,28.4065088 115.256958,28.5215386 114.723701,28.5977116 C114.188519,28.6742019 113.627508,28.7124016 113.041143,28.7124016 C111.800307,28.7124016 110.688185,28.5280185 109.705232,28.1594336 C108.716636,27.7887415 107.861854,27.2326694 107.141201,26.4913986 C106.42116,25.7508754 105.881287,24.8845602 105.521584,23.892793 C105.16358,22.9056025 104.984453,21.7966303 104.984453,20.5661483 C104.984453,19.70407 105.065973,18.9000391 105.228832,18.1542595 C105.392552,17.4044923 105.638517,16.7142678 105.966455,16.0841071 C106.624257,14.8198435 107.57574,13.8325623 108.820474,13.1227621 C109.441209,12.7688816 110.117046,12.5033182 110.847668,12.3263666 C111.576818,12.1499361 112.357784,12.0615736 113.190385,12.0615736 C113.686212,12.0615736 114.172138,12.0989578 114.648095,12.1735221 C115.120676,12.2476334 115.579549,12.3588115 116.024307,12.506966 L116.024511,12.5063996 C116.467003,12.6512915 116.878614,12.8232812 117.259026,13.0207147 C117.644241,13.2206406 117.998008,13.4472791 118.320146,13.6992935 L118.321053,13.7001318 C118.641401,13.9533244 118.922008,14.2143337 119.162445,14.4820041 C119.404785,14.7519403 119.610171,15.0327291 119.778377,15.3234192 L119.779147,15.322966 C119.860124,15.4545582 119.93283,15.586105 119.996995,15.7161565 C120.061658,15.8473635 120.115559,15.9736993 120.158381,16.0941895 L120.158381,16.0951411 C120.202517,16.2219979 120.23571,16.3564676 120.257936,16.4981648 C120.280276,16.6405417 120.291469,16.7856148 120.291469,16.9328857 C120.291469,17.1721215 120.239765,17.4091823 120.136608,17.6424367 C120.036803,17.8678744 119.88883,18.0888713 119.693073,18.3037055 L119.669442,18.3254789 C119.457372,18.5017055 119.23207,18.6342719 118.993106,18.7229516 L118.993106,18.7238579 C118.752443,18.8130587 118.498956,18.857829 118.232169,18.857829 C117.867685,18.857829 117.575522,18.7796169 117.355953,18.6232152 L117.355613,18.6236684 C117.249079,18.5517322 117.12254,18.4356828 116.975405,18.2768568 C116.838941,18.1297899 116.677986,17.9379979 116.49256,17.7035881 L116.479011,17.6854171 C116.257561,17.3413018 116.02578,17.0385355 115.783394,16.7775263 C115.543909,16.5198023 115.2933,16.3022039 115.031339,16.125207 L115.030501,16.1243687 C114.777376,15.9517899 114.493188,15.8216704 114.177848,15.7349619 C113.85827,15.6471205 113.502713,15.6028033 113.110814,15.6028033 C112.566908,15.6028033 112.074752,15.7083852 111.635703,15.9193677 C111.19704,16.1301462 110.806115,16.4486365 110.464696,16.8743172 C110.118021,17.3035324 109.858167,17.8178476 109.684682,18.4171946 C109.50909,19.023656 109.421497,19.7202472 109.421497,20.5064923 C109.421497,21.2029248 109.512828,21.8633553 109.695217,22.4874892 C109.786344,22.7994315 109.892968,23.0856807 110.015316,23.3459876 C110.134515,23.5995427 110.269256,23.8290134 110.419858,24.0339691 C110.588902,24.2304284 110.773172,24.4076746 110.972395,24.5651637 C111.170713,24.7219279 111.388175,24.8621298 111.624262,24.9853162 C111.731271,25.0294521 111.845598,25.0695778 111.965432,25.1055572 C112.096706,25.1448671 112.230678,25.1786488 112.365804,25.206517 C112.501769,25.2347024 112.637349,25.2559094 112.772363,25.2700927 C112.902799,25.2837775 113.035547,25.2906426 113.170492,25.2906426 C113.540867,25.2906426 113.884597,25.2463934 114.202068,25.1572606 C114.517862,25.0686941 114.809685,24.9354933 115.078012,24.7573862 L115.088865,24.7501359 C115.38096,24.579551 115.64539,24.3643316 115.882315,24.1031411 C116.12103,23.8398661 116.335411,23.5261339 116.525708,23.160449 C116.631357,22.9391123 116.753139,22.7341112 116.891596,22.5471679 C117.028717,22.3621957 117.181131,22.1966179 117.349654,22.0521792 L117.349835,22.0523605 C117.524974,21.8975221 117.713232,21.781654 117.914313,21.7045973 C118.117773,21.6264985 118.33331,21.5877096 118.560674,21.5877096 C118.82123,21.5877096 119.07048,21.639413 119.306453,21.7425479 C119.538099,21.8438249 119.754406,21.9942451 119.953629,22.1934686 L119.96822,22.2097817 C120.14311,22.420243 120.275088,22.6366179 120.363835,22.8598126 C120.454917,23.088966 120.500503,23.3228095 120.500503,23.5623625 Z M71.6281256,34.0706818 L71.6281256,2.86915345 C71.6281256,2.47365191 71.6735984,2.11304222 71.7642945,1.7884346 C71.8565767,1.45789083 71.9959403,1.16622657 72.1822039,0.914348095 L72.1958208,0.897060762 C72.39876,0.671645726 72.6389022,0.502148301 72.9158393,0.389180227 C73.1878373,0.278138002 73.493345,0.222650875 73.8317508,0.222650875 C74.1503769,0.222650875 74.4458702,0.278138002 74.7178002,0.389180227 C74.9902286,0.500358393 75.2373038,0.666751802 75.4586179,0.888020597 L75.4713512,0.901637487 C75.6717755,1.13552626 75.8216292,1.42030278 75.9206632,1.75485685 C76.017001,2.08041607 76.0651699,2.45215036 76.0651699,2.86915345 L76.0651699,34.0706818 C76.0651699,34.4973141 76.0154604,34.8746447 75.9160412,35.2016766 C75.8137899,35.5380206 75.6583625,35.8193306 75.4500082,36.0445644 C75.242447,36.2689598 75.0023048,36.437551 74.7299897,36.5497487 C74.4591699,36.661448 74.159689,36.7172523 73.8317508,36.7172523 C73.5323378,36.7172523 73.2506426,36.6611308 72.9868012,36.5488651 C72.7255427,36.4377549 72.4843811,36.271656 72.2637013,36.0509763 L72.2527806,36.039104 C72.0423872,35.7954274 71.885034,35.5066859 71.7810608,35.1736045 C71.6791946,34.847275 71.6281256,34.4793471 71.6281256,34.0706818 Z M65.7689207,10.705413 C65.4634583,10.705413 65.1797693,10.6584676 64.9179897,10.564826 C64.6551226,10.4707312 64.4148671,10.3289207 64.1977899,10.1395757 C63.9755695,9.94581256 63.8089722,9.71262616 63.6982472,9.44010711 C63.5897652,9.17286715 63.5354336,8.86998764 63.5354336,8.53164985 C63.5354336,7.92620803 63.7702966,7.41098661 64.2398414,6.98614418 C64.4689949,6.77876416 64.7105644,6.62256643 64.9639835,6.51789083 C65.2222286,6.41122142 65.4906241,6.35790937 65.7689207,6.35790937 C66.0548301,6.35790937 66.3254912,6.40510402 66.580587,6.49933471 C66.8351164,6.59336148 67.0726756,6.73412976 67.292585,6.92102781 L67.292517,6.92109578 C67.520311,7.09501133 67.6912812,7.31852317 67.8050196,7.59147271 C67.9166509,7.85941504 67.9724552,8.17283007 67.9724552,8.53164985 C67.9724552,9.21854377 67.7516622,9.75474562 67.3102348,10.1395757 C67.0941318,10.3279464 66.8567539,10.4694398 66.5982369,10.5639876 C66.3403769,10.6581277 66.0638249,10.705413 65.7689207,10.705413 Z M67.9724552,14.5886962 L67.9724552,26.0658311 C67.9724552,26.4986488 67.9187806,26.8775201 67.8113862,27.2037137 C67.700344,27.5412812 67.53207,27.8220021 67.3070855,28.0469866 C67.1070917,28.26676 66.8759444,28.4325191 66.6138476,28.5440144 C66.3500742,28.6562122 66.0583646,28.7124016 65.7390587,28.7124016 C65.4396231,28.7124016 65.1579506,28.6562801 64.8941092,28.5440144 C64.6328507,28.4329042 64.3916663,28.266828 64.1710093,28.0461483 L64.1600886,28.0342533 C63.9496272,27.7905994 63.7922739,27.5028095 63.6882327,27.1701133 C63.5863666,26.8445541 63.5354336,26.4768754 63.5354336,26.0658311 L63.5354336,14.7081442 C63.5354336,14.3087909 63.5839197,13.9516478 63.6807786,13.6355366 L63.6807786,13.6345623 C63.7798126,13.3113821 63.9293944,13.0336066 64.1293203,12.8004202 C64.3314892,12.5645149 64.568482,12.3869969 64.8400947,12.2682513 C65.1093965,12.1504573 65.4090587,12.0915036 65.7390587,12.0915036 C66.0384717,12.0915036 66.3202122,12.1476931 66.5839856,12.2598908 C66.8420494,12.3696643 67.0801298,12.5326591 67.2980453,12.7487168 C67.5253862,12.9534006 67.6957899,13.2126653 67.80869,13.527621 C67.9178064,13.8318599 67.9724552,14.1852873 67.9724552,14.5886962 Z M14.1006406,20.7055118 L14.1006406,25.9762451 C14.1006406,26.8928589 13.8905644,27.5724799 13.4705252,28.0257116 C13.2587044,28.2542987 13.0123543,28.4261524 12.7317467,28.5411823 C12.4534047,28.6552606 12.1452461,28.7124016 11.8074295,28.7124016 C11.4890072,28.7124016 11.1938991,28.6549887 10.9224222,28.5402307 C10.6507415,28.4254501 10.4068157,28.2544346 10.1910299,28.0275242 C9.97220803,27.7999114 9.80869207,27.5106488 9.70091246,27.1615036 C9.5964861,26.8229846 9.5441483,26.4290237 9.5441483,25.9811843 L9.5441483,19.6702657 L9.5441483,19.311967 L9.54466941,19.311967 L9.45596704,17.3324428 C9.42834809,17.0773924 9.37267971,16.8466303 9.28884861,16.6406777 C9.20646756,16.4379197 9.09714727,16.2596313 8.96111432,16.1061298 C8.69926674,15.8104325 8.27428836,15.6625273 7.68645108,15.6625273 C7.09743563,15.6625273 6.60863234,15.765277 6.22013182,15.9701648 C5.84094336,16.1702266 5.55283625,16.4705458 5.35624099,16.8704655 C5.14777343,17.2970525 4.99035221,17.8200227 4.88438517,18.4402369 C4.77739856,19.0666818 4.72383728,19.7915942 4.72383728,20.6159938 L4.72383728,25.9762451 C4.72383728,26.4153388 4.6744449,26.8018455 4.57572812,27.1366488 C4.47379403,27.4825767 4.31947683,27.7720433 4.11325232,28.0062492 C3.69860556,28.4769722 3.14763131,28.7124016 2.46055613,28.7124016 C2.13313903,28.7124016 1.83044078,28.6568012 1.55291452,28.5458723 C1.2748898,28.4346941 1.02473326,28.2680968 0.802898043,28.0461483 L0.792815654,28.0352276 C0.581266735,27.7929784 0.423415036,27.496896 0.319487127,27.1484758 C0.21807415,26.8086653 0.167345005,26.4190093 0.167345005,25.9811843 L0.167345005,14.6434809 C0.167345005,14.2255036 0.215899073,13.8589578 0.312939238,13.5453615 C0.413581874,13.2201195 0.566358393,12.9526982 0.771178167,12.7447291 C1.17547065,12.3291988 1.67893306,12.1212976 2.28136148,12.1212976 C2.5812276,12.1212976 2.85764367,12.1747456 3.11038311,12.2807127 C3.35840989,12.3847539 3.58185376,12.539275 3.78080536,12.7436416 C3.99622863,12.9244222 4.15827188,13.1557734 4.26654995,13.4365623 L4.26686715,13.4364264 C4.34843254,13.6483831 4.39866323,13.8865088 4.41708342,14.1504861 C4.63327703,13.9161895 4.85780844,13.7031679 5.0904964,13.5112626 C5.4746241,13.1946982 5.87955098,12.937654 6.30516375,12.7404243 L6.30523172,12.7407415 C6.40947683,12.6887209 6.50928115,12.6419794 6.60419156,12.6006076 C6.70895778,12.5549537 6.80921524,12.5144882 6.90471473,12.4793018 C7.00220803,12.4434583 7.12281153,12.4053718 7.26629866,12.3655407 C7.40584346,12.3268198 7.56358187,12.2873285 7.73910608,12.2471802 C7.92190319,12.2054459 8.12241813,12.1739753 8.34031102,12.1529722 C8.5592688,12.1319011 8.78932853,12.1212976 9.03021833,12.1212976 C9.53497219,12.1212976 10.009275,12.1732503 10.4529907,12.2770422 C10.8978847,12.3811514 11.3117384,12.5381195 11.6943934,12.7476972 L11.6952997,12.7476972 C12.0776148,12.9572523 12.4275304,13.221932 12.7446612,13.541691 C12.9889722,13.7879959 13.2135036,14.0669949 13.4181874,14.3784161 C13.7023069,14.0512482 13.9954439,13.7612152 14.2974851,13.5084985 C14.6770587,13.1908919 15.0721071,12.9307209 15.4823584,12.7282348 C15.891794,12.5261112 16.3157528,12.3743543 16.753827,12.2732585 C17.1928074,12.1720494 17.6445664,12.1212976 18.108379,12.1212976 C19.2227436,12.1212976 20.1858723,12.3450587 20.9974706,12.7924449 C21.4055469,13.0174974 21.7622595,13.2865273 22.0673368,13.6007806 C22.3729804,13.9156684 22.6259011,14.2751452 22.825827,14.6801401 C23.0249825,15.0837981 23.173862,15.5834542 23.2722389,16.180173 C23.3692338,16.7685314 23.4177199,17.4504861 23.4177199,18.2270113 L23.4177199,25.9762451 C23.4177199,26.8928589 23.2076437,27.5724799 22.7876045,28.0257116 C22.5757384,28.2542987 22.3294336,28.4261524 22.048826,28.5411823 C21.770484,28.6553059 21.4622575,28.7124016 21.1245088,28.7124016 C20.7970917,28.7124016 20.4944614,28.6568012 20.2169578,28.5458723 C19.9389104,28.4346941 19.6887085,28.2680968 19.4669413,28.0461483 L19.4568589,28.0352276 C19.2452873,27.7929784 19.0874356,27.496896 18.9835077,27.1484758 C18.8820947,26.8086653 18.8313656,26.4190093 18.8313656,25.9811843 L18.8313656,19.311967 L18.8313656,18.9834624 C18.8313656,18.5965026 18.8216004,18.2605438 18.8024099,17.9761524 C18.7834006,17.6946612 18.7546262,17.4581895 18.7164037,17.2670546 L18.7137075,17.2488836 C18.6869269,17.025621 18.6291287,16.8208239 18.5404943,16.6346962 C18.4519959,16.4488857 18.3326612,16.2808836 18.1828301,16.1309846 L18.1691452,16.1155098 C18.046208,15.968035 17.8845046,15.8566076 17.6840577,15.7814768 C17.47269,15.7022225 17.2159176,15.6625273 16.9139444,15.6625273 C16.687102,15.6625273 16.4644964,15.696241 16.2467621,15.7636231 C16.0249495,15.832138 15.8058785,15.9354768 15.590138,16.0731864 C15.3752358,16.2103522 15.1783913,16.3774706 14.999967,16.5756746 C14.8227889,16.7725191 14.6650505,16.998206 14.5270917,17.2536189 C14.387139,17.5620947 14.2813079,17.9988321 14.2098929,18.5646468 C14.1371184,19.1412008 14.1006406,19.8545355 14.1006406,20.7055118 Z M218.261456,1.9473965 C219.37641,1.92009475 220.084987,3.22020185 219.878128,4.31625953 L214.341174,33.6536787 C214.134315,34.7496684 213.028107,35.6299856 211.972243,35.2703275 L202.613226,32.0808713 C201.557384,31.7212132 200.772295,30.8044634 200.979108,29.708723 L205.867685,3.8066344 C206.074498,2.71089392 207.139267,2.22061792 208.254016,2.19331617 L218.261456,1.9473965 Z M206.722468,7.6677137 L203.186313,26.7811143 L213.4909,29.8644676 L217.490051,7.92113285 L206.722468,7.6677137 Z M207.194187,28.697312 C206.834076,28.697312 206.508902,28.8673759 206.274492,29.1423419 L206.274243,29.14207 C206.045656,29.4103522 205.904299,29.7791864 205.904299,30.1846344 C205.904299,30.5901504 206.045656,30.9589166 206.274243,31.2271988 C206.508268,31.5018929 206.833442,31.6718888 207.194187,31.6718888 C207.554435,31.6718888 207.879586,31.501757 208.113883,31.2269269 L208.1142,31.2271988 C208.342719,30.9589166 208.484144,30.5901504 208.484144,30.1846344 C208.484144,29.7795036 208.342719,29.4109866 208.1142,29.1426591 C207.879926,28.8675798 207.554616,28.697312 207.194187,28.697312 Z M207.87902,29.342585 C208.06116,29.5563769 208.173878,29.854068 208.173878,30.1846344 C208.173878,30.5148157 208.06116,30.8122348 207.87902,31.0260494 L207.87902,31.0266159 C207.702861,31.2335427 207.460476,31.3616231 207.194187,31.3616231 C206.928307,31.3616231 206.686035,31.2332935 206.509355,31.0260494 C206.327283,30.8122348 206.214496,30.5147477 206.214496,30.1846344 C206.214496,29.8545211 206.327283,29.557034 206.509355,29.3432873 L206.509355,29.3426529 C206.685718,29.1356581 206.92799,29.0075778 207.194187,29.0075778 C207.460476,29.0075778 207.702861,29.1356581 207.87902,29.342585 Z M209.365186,6.45204943 L214.595318,6.45828328 C214.731034,6.4584873 214.842008,6.56965375 214.842008,6.70541556 L214.842008,6.70548356 C214.842008,6.84126804 214.731034,6.95216247 214.595318,6.95204912 L209.365186,6.94574727 C209.229403,6.94554326 209.118496,6.83439947 209.118496,6.698615 L209.118496,6.69854699 C209.118496,6.56276252 209.229403,6.45186809 209.365186,6.45204943 Z M209.365186,6.39026365 L209.365186,6.39001442 L209.364847,6.39001442 L209.364847,6.39026365 C209.280087,6.39021833 209.202939,6.42483831 209.147339,6.48043872 C209.091444,6.53619773 209.056711,6.61339032 209.056643,6.69810505 L209.056393,6.69810505 L209.056393,6.69849022 L209.056393,6.69855819 C209.056393,6.7833862 209.091127,6.8607827 209.147067,6.91665499 L209.147203,6.91654171 C209.203007,6.97248198 209.280268,7.00721524 209.365186,7.00735118 L214.595318,7.01364985 L214.595318,7.0138311 L214.595635,7.0138311 L214.595635,7.01364985 C214.680418,7.01364985 214.757475,6.97896189 214.813166,6.9234068 C214.869038,6.86764779 214.903794,6.7904552 214.903862,6.70574047 L214.904043,6.70574047 L214.904043,6.70542327 L214.904043,6.7053553 C214.904043,6.62059526 214.86931,6.54331205 214.813415,6.48737178 C214.757475,6.4313862 214.680169,6.39656231 214.595318,6.39649434 L209.365186,6.39026365 Z M214.595318,6.52013388 L209.365186,6.51383522 L209.365186,6.51410711 L209.364847,6.51410711 L209.364847,6.51383522 C209.314367,6.51383522 209.268078,6.53472503 209.234546,6.56816684 C209.201081,6.60156334 209.180282,6.64762513 209.180282,6.69810505 L209.180531,6.69810505 L209.180531,6.69849022 L209.180531,6.69855819 C209.180531,6.74921936 209.201331,6.79553038 209.234795,6.82892688 L209.234795,6.82917611 C209.26826,6.86270855 209.314571,6.88364367 209.365186,6.88371164 L214.595318,6.8900103 L214.595318,6.88976107 L214.595635,6.88976107 L214.595635,6.8900103 C214.646115,6.8900103 214.692358,6.86914315 214.725959,6.83567868 C214.759287,6.80235015 214.780222,6.75615242 214.780222,6.70574047 L214.779973,6.70574047 L214.779973,6.70542327 L214.779973,6.7053553 C214.779973,6.65449022 214.759151,6.60813388 214.725687,6.57460144 C214.692177,6.541069 214.645866,6.52013388 214.595318,6.52013388 Z" id="Combined-Shape" fill="#FFFFFF"></path>
                <path d="M42.2012564,20.4168836 C42.2012564,21.6522595 42.0121833,22.7886468 41.6342183,23.8305541 C41.4445788,24.3509186 41.2091946,24.8314974 40.9284058,25.2727209 C40.6469598,25.7147827 40.3209022,26.1158805 39.9503913,26.4760371 L39.9494851,26.4769434 C39.5778187,26.8356272 39.1746818,27.1537322 38.7403234,27.4295819 C38.3101565,27.7028033 37.8465026,27.9361936 37.3496107,28.1283481 L37.349724,28.1286653 C36.3563028,28.5178002 35.248033,28.7124016 34.0251411,28.7124016 C32.7813594,28.7124016 31.6677652,28.5177549 30.6846756,28.1286653 L30.6848115,28.1283481 C30.1936292,27.9365108 29.7326715,27.6970257 29.3021874,27.4117961 C28.8697549,27.1253429 28.4682266,26.7921483 28.0976478,26.41407 L28.0971946,26.4145232 C27.9174336,26.2347394 27.7465314,26.0455984 27.5848733,25.8484367 L27.583967,25.8484367 C27.4270669,25.6568486 27.2797508,25.4562884 27.1423584,25.2474809 L27.1268836,25.2202019 L26.4400803,23.7917652 L26.4309495,23.7699918 C26.2467477,23.2582595 26.1086756,22.7230772 26.0169598,22.1643769 C25.9249269,21.6040227 25.8788651,21.0216231 25.8788651,20.4168836 C25.8788651,19.8229969 25.9237034,19.2483913 26.0132214,18.6926591 C26.1025129,18.1380144 26.2365973,17.6057096 26.4151576,17.095518 C26.5947827,16.5844655 26.82124,16.108826 27.0938723,15.6683048 C27.367207,15.2266962 27.6864676,14.8210443 28.0514727,14.4508733 L28.0524243,14.449967 C28.4181998,14.0816313 28.8218352,13.7529907 29.2631267,13.465654 C29.7020391,13.1799938 30.1760247,12.9358641 30.6846756,12.734964 L30.6892297,12.7340803 C30.9354892,12.6417075 31.1733656,12.5614336 31.402655,12.4934171 C31.6346179,12.4246303 31.8610752,12.367036 32.0815736,12.3208383 C32.3025705,12.2747312 32.4920968,12.2379361 32.6496993,12.2109063 C32.8107683,12.1832194 32.9485458,12.1638249 33.0626694,12.1529722 C33.1713326,12.1426859 33.3070484,12.1348012 33.4692049,12.1297261 C33.6454995,12.1241977 33.8308568,12.1212976 34.0251411,12.1212976 C34.6230608,12.1212976 35.2041009,12.1726159 35.7681256,12.2751843 C36.3322863,12.3776849 36.8744696,12.5310505 37.3944943,12.734964 L37.3944264,12.7350999 C37.6400288,12.8248218 37.8751411,12.9283419 38.0994233,13.0447312 C38.3230484,13.1607127 38.5380185,13.2909001 38.7439258,13.4342513 C38.9703831,13.5681545 39.1868713,13.7175551 39.3928465,13.8815015 C39.599275,14.0457425 39.7958476,14.2254356 39.9825644,14.4195839 L39.9829495,14.4192667 C40.31338,14.7496972 40.6133821,15.1351164 40.8825932,15.5758187 C41.1490175,16.012103 41.3844016,16.5017446 41.5884964,17.0452873 L41.5884964,17.0461256 C41.7922739,17.5913223 41.9452544,18.1447436 42.0473924,18.7068424 C42.1499609,19.2714336 42.2012564,19.8413718 42.2012564,20.4168836 Z M37.7641668,20.4168836 C37.7641668,19.6573738 37.6776622,18.9771637 37.5054006,18.3770463 C37.3349516,17.7830237 37.0806262,17.2673718 36.7431946,16.8308383 C36.4101813,16.4000824 36.0189392,16.0780577 35.5691061,15.864447 C35.1175963,15.6500659 34.6030999,15.5430566 34.0251411,15.5430566 C33.6751802,15.5430566 33.3414645,15.5893677 33.0241298,15.6812194 C32.7038496,15.7738867 32.3967106,15.9134542 32.1031432,16.0989248 L32.1030299,16.0987436 C31.8145149,16.2835118 31.5595551,16.5147951 31.3390566,16.7927518 C31.1179464,17.0714789 30.9317508,17.3974912 30.7814665,17.7708342 L30.7805602,17.7716725 C30.6261071,18.1495015 30.5101936,18.5593903 30.4324119,19.0011123 C30.3545623,19.4425396 30.3160227,19.9145767 30.3160227,20.4168836 C30.3160227,20.9209804 30.3521153,21.3886674 30.4249578,21.8196272 C30.4973924,22.2483893 30.6061236,22.6429846 30.7516725,23.0031637 L30.7516725,23.0041153 C30.8931432,23.3603749 31.0736292,23.6836231 31.2921112,23.9739053 C31.5073986,24.2600865 31.7612255,24.5155221 32.0527312,24.7404387 C32.3228033,24.9222616 32.6204717,25.0593821 32.9456457,25.1510752 C33.2751246,25.2439011 33.634964,25.2906426 34.0251411,25.2906426 C34.5942863,25.2906426 35.1029598,25.1861483 35.5513656,24.9768424 C35.9990917,24.7677178 36.3922595,24.4518785 36.7309825,24.0290752 C37.0727868,23.6024428 37.3302163,23.0901215 37.5025911,22.4931535 C37.676688,21.890068 37.7641668,21.1976684 37.7641668,20.4168836 L37.7641668,20.4168836 Z" id="Fill-102" fill="#DC2B1C"></path>
            </g>
        </g>
    </g>
</svg>